<svg width="170" height="45" viewBox="0 0 170 45" fill="none" xmlns="http://www.w3.org/2000/svg">
<rect width="170" height="45" fill="black"/>
<path d="M24.2258 11.9025L19.0908 32.8125H16.4979L12.3798 15.9825L8.10916 32.8125L5.54168 32.8425L0.584673 11.9025H3.05047L6.91439 29.6325L11.185 11.9025H13.7779L17.8452 29.5725L21.7346 11.9025H24.2258ZM33.6718 16.0725C34.7224 16.0725 35.6715 16.3425 36.5189 16.8825C37.3662 17.4025 38.0271 18.1925 38.5017 19.2525C38.9931 20.3125 39.2389 21.6025 39.2389 23.1225V32.8125H36.951V23.5125C36.951 21.8725 36.6035 20.6225 35.9088 19.7625C35.2139 18.8825 34.2649 18.4425 33.0617 18.4425C31.8415 18.4425 30.867 18.8925 30.1383 19.7925C29.4265 20.6925 29.0706 22.0025 29.0706 23.7225V32.8125H26.7574V10.6125H29.0706V18.7125C29.5282 17.8725 30.1552 17.2225 30.9518 16.7625C31.7652 16.3025 32.6719 16.0725 33.6718 16.0725ZM42.1532 24.5325C42.1532 22.8525 42.4414 21.3825 43.0175 20.1225C43.5937 18.8425 44.3818 17.8525 45.3817 17.1525C46.3985 16.4525 47.5255 16.1025 48.7626 16.1025C49.9828 16.1025 51.0419 16.4125 51.9402 17.0325C52.8384 17.6525 53.5077 18.4325 53.9484 19.3725V16.3725H56.2871V32.8125H53.9484V29.7525C53.4908 30.7125 52.8045 31.5125 51.8893 32.1525C50.9911 32.7725 49.9404 33.0825 48.7372 33.0825C47.5001 33.0825 46.3816 32.7225 45.3817 32.0025C44.3818 31.2825 43.5937 30.2725 43.0175 28.9725C42.4414 27.6725 42.1532 26.1925 42.1532 24.5325ZM53.9484 24.5625C53.9484 23.3225 53.7365 22.2425 53.3129 21.3225C52.8892 20.4025 52.313 19.7025 51.5843 19.2225C50.8725 18.7225 50.0845 18.4725 49.2202 18.4725C48.3559 18.4725 47.5678 18.7125 46.8561 19.1925C46.1443 19.6725 45.5765 20.3725 45.1529 21.2925C44.7292 22.2125 44.5174 23.2925 44.5174 24.5325C44.5174 25.7925 44.7292 26.8925 45.1529 27.8325C45.5765 28.7525 46.1443 29.4625 46.8561 29.9625C47.5678 30.4425 48.3559 30.6825 49.2202 30.6825C50.0845 30.6825 50.8725 30.4425 51.5843 29.9625C52.313 29.4625 52.8892 28.7525 53.3129 27.8325C53.7365 26.8925 53.9484 25.8025 53.9484 24.5625ZM63.018 18.6225V28.3125C63.018 29.1125 63.162 29.6825 63.4501 30.0225C63.7382 30.3425 64.2382 30.5025 64.9499 30.5025H66.6531V32.8125H64.5686C63.2807 32.8125 62.3147 32.4625 61.6707 31.7625C61.0267 31.0625 60.7047 29.9125 60.7047 28.3125V18.6225H58.8998V16.3725H60.7047V12.2325H63.018V16.3725H66.6531V18.6225H63.018ZM80.692 11.7525V15.8625H73.4216V20.3025H78.8616V24.2925H73.4216V32.8125H69.0747V11.7525H80.692ZM82.1124 24.4125C82.1124 22.6925 82.3833 21.1825 82.9258 19.8825C83.4851 18.5825 84.239 17.5825 85.1883 16.8825C86.1368 16.1825 87.1965 15.8325 88.3658 15.8325C89.3652 15.8325 90.2382 16.0725 90.9842 16.5525C91.7468 17.0325 92.3314 17.6625 92.7382 18.4425V16.0725H97.0851V32.8125H92.7382V30.4425C92.314 31.2225 91.7214 31.8525 90.9587 32.3325C90.2128 32.8125 89.3398 33.0525 88.3404 33.0525C87.1878 33.0525 86.1368 32.7025 85.1883 32.0025C84.239 31.2825 83.4851 30.2725 82.9258 28.9725C82.3833 27.6525 82.1124 26.1325 82.1124 24.4125ZM92.7382 24.4425C92.7382 23.1625 92.4331 22.1525 91.823 21.4125C91.2296 20.6725 90.5012 20.3025 89.6369 20.3025C88.7726 20.3025 88.0354 20.6725 87.4253 21.4125C86.8319 22.1325 86.5356 23.1325 86.5356 24.4125C86.5356 25.6925 86.8319 26.7125 87.4253 27.4725C88.0354 28.2125 88.7726 28.5825 89.6369 28.5825C90.5012 28.5825 91.2296 28.2125 91.823 27.4725C92.4331 26.7325 92.7382 25.7225 92.7382 24.4425ZM106.001 33.0525C104.763 33.0525 103.662 32.8025 102.696 32.3025C101.73 31.8025 100.967 31.1225 100.408 30.2625C99.8488 29.3825 99.535 28.4025 99.4675 27.3225H103.764C103.814 27.9025 104.043 28.3725 104.45 28.7325C104.857 29.0925 105.356 29.2725 105.95 29.2725C106.491 29.2725 106.907 29.1525 107.195 28.9125C107.5 28.6525 107.653 28.3225 107.653 27.9225C107.653 27.4425 107.441 27.0925 107.017 26.8725C106.593 26.6325 105.907 26.3725 104.958 26.0925C103.941 25.8125 103.094 25.5225 102.416 25.2225C101.738 24.9025 101.153 24.4125 100.662 23.7525C100.171 23.0725 99.925 22.1625 99.925 21.0225C99.925 20.0625 100.145 19.1925 100.586 18.4125C101.044 17.6125 101.704 16.9825 102.569 16.5225C103.45 16.0625 104.492 15.8325 105.696 15.8325C107.475 15.8325 108.873 16.3525 109.89 17.3925C110.923 18.4325 111.517 19.8125 111.669 21.5325H107.653C107.585 20.9525 107.365 20.4925 106.992 20.1525C106.636 19.8125 106.161 19.6425 105.568 19.6425C105.06 19.6425 104.67 19.7625 104.399 20.0025C104.127 20.2225 103.992 20.5325 103.992 20.9325C103.992 21.4125 104.204 21.7725 104.628 22.0125C105.068 22.2525 105.746 22.4925 106.662 22.7325C107.712 23.0525 108.568 23.3725 109.229 23.6925C109.89 23.9925 110.466 24.4925 110.958 25.1925C111.466 25.8725 111.728 26.7925 111.746 27.9525C111.746 28.9325 111.508 29.8125 111.034 30.5925C110.576 31.3525 109.907 31.9525 109.026 32.3925C108.161 32.8325 107.152 33.0525 106.001 33.0525ZM122.31 28.4625V32.8125H120.099C118.523 32.8125 117.294 32.3625 116.413 31.4625C115.532 30.5425 115.091 29.0525 115.091 26.9925V20.3325H113.362V16.0725H115.091V11.9925H119.438V16.0725H122.285V20.3325H119.438V27.0525C119.438 27.5525 119.539 27.9125 119.743 28.1325C119.946 28.3525 120.285 28.4625 120.76 28.4625H122.31Z" fill="white"/>
<path fill-rule="evenodd" clip-rule="evenodd" d="M135.736 40.5966L137.876 31.3763C136.556 28.6781 135.862 25.6163 135.863 22.4803C135.867 12.6694 142.632 4.6875 150.946 4.6875C154.98 4.68938 158.766 6.54281 161.614 9.90563C164.461 13.2694 166.03 17.7394 166.028 22.4944C166.025 32.3053 159.258 40.2881 150.946 40.2881H150.939C148.416 40.2872 145.935 39.54 143.732 38.1216L135.736 40.5966Z" fill="white"/>
<path fill-rule="evenodd" clip-rule="evenodd" d="M135.736 41.0653C135.631 41.0653 135.53 41.0166 135.454 40.9266C135.355 40.8075 135.316 40.6341 135.353 40.4738L137.45 31.44C136.15 28.7156 135.465 25.6219 135.466 22.4813C135.469 12.4106 142.413 4.21875 150.946 4.21875C155.084 4.22063 158.973 6.12281 161.896 9.57469C164.818 13.0275 166.427 17.6156 166.425 22.4944C166.422 32.5641 159.477 40.7569 150.946 40.7569C148.412 40.7559 145.906 40.0181 143.682 38.6222L135.837 41.0494C135.804 41.0606 135.77 41.0653 135.736 41.0653Z" fill="white"/>
<path fill-rule="evenodd" clip-rule="evenodd" d="M150.946 4.6875C154.98 4.68938 158.766 6.54281 161.614 9.90562C164.461 13.2694 166.03 17.7394 166.028 22.4944C166.025 32.3053 159.258 40.2881 150.946 40.2881H150.939C148.416 40.2872 145.935 39.54 143.732 38.1216L135.736 40.5966L137.876 31.3762C136.556 28.6781 135.862 25.6163 135.863 22.4803C135.867 12.6694 142.632 4.6875 150.946 4.6875ZM150.946 3.75C142.195 3.75 135.072 12.1519 135.068 22.4803C135.067 25.6369 135.743 28.7475 137.023 31.5009L134.97 40.35C134.895 40.6734 134.971 41.0184 135.171 41.2566C135.322 41.4366 135.527 41.535 135.736 41.535C135.804 41.535 135.871 41.5247 135.938 41.5041L143.633 39.1228C145.88 40.4991 148.398 41.2256 150.939 41.2266C159.697 41.2266 166.819 32.8238 166.823 22.4953C166.825 17.49 165.175 12.7837 162.178 9.24375C159.179 5.70281 155.19 3.75188 150.946 3.75Z" fill="#CFD8DC"/>
<path fill-rule="evenodd" clip-rule="evenodd" d="M159.813 12.03C157.445 9.23437 154.299 7.69405 150.95 7.69312C144.035 7.69312 138.412 14.3269 138.409 22.4812C138.408 25.2759 139.07 27.9966 140.325 30.3525L140.624 30.9122L139.357 36.3694L144.102 34.9013L144.56 35.2219C146.484 36.57 148.691 37.2825 150.941 37.2834H150.946C157.855 37.2834 163.479 30.6488 163.481 22.4934C163.482 18.5419 162.18 14.8256 159.813 12.03Z" fill="#40C351"/>
<mask id="mask0_5_2" style="mask-type:alpha" maskUnits="userSpaceOnUse" x="136" y="5" width="30" height="35">
<path d="M165.134 14.5838L144.227 5.625L136.635 30.2989L157.543 39.2577L165.134 14.5838Z" fill="#D9D9D9"/>
</mask>
<g mask="url(#mask0_5_2)">
<path d="M147.661 28.2742L154.13 23.8318L150.645 22.3387L153.072 16.775L146.932 21.911L149.959 23.2081L147.661 28.2742ZM144.916 30.871L147.983 24.1071L143.954 22.3807L154.895 13.2283L155.967 13.6878L152.608 21.4341L157.399 23.487L145.989 31.3304L144.916 30.871Z" fill="white"/>
</g>
</svg>
